<?xml version="1.0" encoding="utf-8"?>
<!-- Generator: Adobe Illustrator 16.0.0, SVG Export Plug-In . SVG Version: 6.00 Build 0)  -->
<!DOCTYPE svg PUBLIC "-//W3C//DTD SVG 1.1//EN" "http://www.w3.org/Graphics/SVG/1.1/DTD/svg11.dtd">
<svg version="1.1" id="Layer_1" xmlns="http://www.w3.org/2000/svg" xmlns:xlink="http://www.w3.org/1999/xlink" x="0px" y="0px"
	 width="25px" height="25px" viewBox="0 0 25 25" enable-background="new 0 0 25 25" xml:space="preserve">
<path d="M9.905,2.651c0-0.327,0.265-0.592,0.589-0.592h4.011c0.325,0,0.59,0.266,0.59,0.592v1.685h2.234V3.279h-1.182V2.651
	c0-0.91-0.737-1.649-1.643-1.649h-4.011c-0.905,0-1.642,0.74-1.642,1.649v0.628H7.67v1.057h2.235V2.651z M10.195,18.123h4.609
	v-4.535h-4.609V18.123z M11.248,14.645h2.505v2.422h-2.505V14.645z M22.126,5.363H2.874c-1.521,0-2.758,1.243-2.758,2.771v13.095
	c0,1.527,1.237,2.77,2.758,2.77h19.252c1.521,0,2.758-1.242,2.758-2.77V8.134C24.884,6.606,23.646,5.363,22.126,5.363z
	 M23.831,12.228c-0.976,0.49-4.479,2.147-8.422,2.798l0.171,1.043c3.627-0.599,6.831-1.983,8.251-2.663v7.823
	c0,0.944-0.765,1.713-1.705,1.713H2.874c-0.94,0-1.705-0.769-1.705-1.713v-7.805c1.403,0.7,4.523,2.096,8.124,2.671l0.165-1.043
	c-3.928-0.629-7.344-2.318-8.289-2.816V8.134c0-0.945,0.765-1.713,1.705-1.713h19.252c0.94,0,1.705,0.769,1.705,1.713V12.228z"/>
</svg>
