<?xml version="1.0" encoding="utf-8"?>
<!-- Generator: Adobe Illustrator 16.0.0, SVG Export Plug-In . SVG Version: 6.00 Build 0)  -->
<!DOCTYPE svg PUBLIC "-//W3C//DTD SVG 1.1//EN" "http://www.w3.org/Graphics/SVG/1.1/DTD/svg11.dtd">
<svg version="1.1" id="Layer_1" xmlns="http://www.w3.org/2000/svg" xmlns:xlink="http://www.w3.org/1999/xlink" x="0px" y="0px"
	 width="25px" height="25px" viewBox="0 0 25 25" enable-background="new 0 0 25 25" xml:space="preserve">
<path d="M12.5,1.87L-0.002,8.248l0.52,2.114h1.818v1.976h1.027c0.066,0.52,0.471,0.935,0.984,1.019v5.564
	c-0.504,0.084-0.902,0.485-0.98,0.99H2.336v3.218h20.328v-3.218h-1.186c-0.076-0.505-0.475-0.906-0.979-0.99v-5.564
	c0.514-0.084,0.918-0.5,0.982-1.019h1.182v-1.976h1.818l0.52-2.114L12.5,1.87z M9.012,19.912c-0.076-0.505-0.475-0.906-0.98-0.99
	v-5.564c0.516-0.084,0.918-0.5,0.984-1.019h0.498c0.066,0.52,0.471,0.935,0.984,1.019v5.564c-0.506,0.084-0.904,0.485-0.98,0.99
	H9.012z M15.162,19.912c-0.076-0.505-0.475-0.906-0.979-0.99v-5.564c0.514-0.084,0.918-0.5,0.982-1.019h0.664
	c0.068,0.52,0.471,0.935,0.984,1.019v5.564c-0.504,0.084-0.902,0.485-0.979,0.99H15.162z M21.643,11.317h-1.17v0.871
	c0,0.091-0.074,0.166-0.166,0.166h-0.828v7.573h0.828c0.092,0,0.166,0.074,0.166,0.165v0.842h1.17v1.175H16.01v-1.175h0.834v-0.842
	c0-0.091,0.074-0.165,0.166-0.165h0.826v-7.573H17.01c-0.092,0-0.166-0.075-0.166-0.166v-0.871H16.01v-0.474h-1.021v0.474h-0.834
	v0.871c0,0.091-0.074,0.166-0.166,0.166H13.16v7.573h0.828c0.092,0,0.166,0.074,0.166,0.165v0.842h0.834v1.175H9.775v-1.175h0.75
	v-0.842c0-0.091,0.076-0.165,0.166-0.165h0.828v-7.573h-0.828c-0.09,0-0.166-0.075-0.166-0.166v-0.871h-0.75v-0.474H8.754v0.474
	h-0.75v0.871c0,0.091-0.074,0.166-0.166,0.166H7.01v7.573h0.828c0.092,0,0.166,0.074,0.166,0.165v0.842h0.75v1.175H3.357v-1.175
	h1.018v-0.842c0-0.091,0.074-0.165,0.166-0.165h0.828v-7.573H4.541c-0.092,0-0.166-0.075-0.166-0.166v-0.871H3.357v-0.931h18.285
	V11.317z M23.682,9.342h-1.418v0.024H2.545V9.342H1.318L1.184,8.79L12.5,3.017L23.816,8.79L23.682,9.342z M10.32,6.471
	c0,1.201,0.977,2.179,2.18,2.179s2.18-0.978,2.18-2.179c0-1.202-0.977-2.178-2.18-2.178S10.32,5.269,10.32,6.471z M13.863,6.471
	c0,0.75-0.611,1.362-1.363,1.362s-1.363-0.611-1.363-1.362c0-0.751,0.611-1.362,1.363-1.362S13.863,5.719,13.863,6.471z"/>
</svg>
