<?xml version="1.0" encoding="utf-8"?>
<!-- Generator: Adobe Illustrator 16.0.0, SVG Export Plug-In . SVG Version: 6.00 Build 0)  -->
<!DOCTYPE svg PUBLIC "-//W3C//DTD SVG 1.1//EN" "http://www.w3.org/Graphics/SVG/1.1/DTD/svg11.dtd">
<svg version="1.1" id="Layer_1" xmlns="http://www.w3.org/2000/svg" xmlns:xlink="http://www.w3.org/1999/xlink" x="0px" y="0px"
	 width="25px" height="25px" viewBox="0 0 25 25" enable-background="new 0 0 25 25" xml:space="preserve">
<g>
	<path fill-rule="evenodd" clip-rule="evenodd" d="M19.707,24.928H5.293c-0.884,0-1.591-0.707-1.591-1.591V4.065
		c0-0.884,0.707-1.591,1.591-1.591h3.991v1.326h-3.85c-0.461,0-0.812,0.352-0.812,0.794V23.23c0,0.426,0.352,0.777,0.812,0.777
		h14.131c0.461,0,0.813-0.352,0.813-0.777V4.595c0-0.442-0.353-0.794-0.813-0.794h-3.85V2.475h3.991
		c0.885,0,1.591,0.707,1.591,1.591v19.271C21.298,24.221,20.592,24.928,19.707,24.928z M17.307,4.982
		c0.423,0,0.774,0.355,0.774,0.797s0,1.553,0,1.553H6.919c0,0,0-1.111,0-1.553s0.352-0.797,0.775-0.797h2.403c0,0,0-1.129,0-2.437
		c0-1.342,1.059-2.473,2.403-2.473c1.343,0,2.437,1.184,2.437,2.49c0,1.397-0.035,2.42-0.035,2.42H17.307z M12.501,2.475
		c-0.461,0-0.812,0.352-0.812,0.794s0.352,0.797,0.812,0.797c0.459,0,0.811-0.355,0.811-0.797S12.96,2.475,12.501,2.475z"/>
	<rect x="9.284" y="8.922" fill-rule="evenodd" clip-rule="evenodd" width="8.797" height="0.797"/>
	<rect x="9.284" y="11.326" fill-rule="evenodd" clip-rule="evenodd" width="8.797" height="0.794"/>
	<rect x="9.284" y="13.711" fill-rule="evenodd" clip-rule="evenodd" width="8.797" height="0.794"/>
	<rect x="9.284" y="16.111" fill-rule="evenodd" clip-rule="evenodd" width="8.797" height="0.797"/>
	<rect x="9.284" y="20.9" fill-rule="evenodd" clip-rule="evenodd" width="8.797" height="0.812"/>
	<rect x="9.284" y="18.496" fill-rule="evenodd" clip-rule="evenodd" width="8.797" height="0.813"/>
	<rect x="6.919" y="8.906" fill-rule="evenodd" clip-rule="evenodd" width="0.775" height="0.794"/>
	<rect x="6.919" y="11.307" fill-rule="evenodd" clip-rule="evenodd" width="0.775" height="0.797"/>
	<rect x="6.919" y="13.691" fill-rule="evenodd" clip-rule="evenodd" width="0.775" height="0.797"/>
	<rect x="6.919" y="16.095" fill-rule="evenodd" clip-rule="evenodd" width="0.775" height="0.795"/>
	<rect x="6.919" y="20.864" fill-rule="evenodd" clip-rule="evenodd" width="0.775" height="0.813"/>
	<rect x="6.919" y="18.479" fill-rule="evenodd" clip-rule="evenodd" width="0.775" height="0.813"/>
</g>
</svg>
