<?xml version="1.0" encoding="utf-8"?>
<!-- Generator: Adobe Illustrator 16.0.0, SVG Export Plug-In . SVG Version: 6.00 Build 0)  -->
<!DOCTYPE svg PUBLIC "-//W3C//DTD SVG 1.1//EN" "http://www.w3.org/Graphics/SVG/1.1/DTD/svg11.dtd">
<svg version="1.1" id="Layer_1" xmlns="http://www.w3.org/2000/svg" xmlns:xlink="http://www.w3.org/1999/xlink" x="0px" y="0px"
	 width="25px" height="25px" viewBox="0 0 25 25" enable-background="new 0 0 25 25" xml:space="preserve">
<path d="M24.977,9.628c-0.058-2.602-2.193-4.648-3.713-5.126l-0.188-0.059l-0.172,0.094c-0.59,0.319-3.692,1.812-4.224,1.896
	c-0.305,0-1.641-0.603-2.284-0.892c-0.638-0.288-1.008-0.453-1.209-0.503c-0.056-0.015-0.116-0.021-0.186-0.021
	c-0.481,0-2.742,0.628-4.355,1.289l-3.191-2.42L5.274,3.904C3.64,4.069,0.723,6.66,0.088,8.982L0.019,9.235l2.235,2.433
	c0.183,0.609,0.361,1.062,0.55,1.393l-0.541,0.545c-0.4,0.405-0.538,0.984-0.364,1.547c0.149,0.489,0.511,0.873,0.975,1.058
	c0.184,0.621,0.687,1.298,1.625,1.566c0.235,0.558,0.655,1.147,1.613,1.404c0.333,0.697,1.012,1.336,1.804,1.336
	c0.418,0,0.814-0.179,1.149-0.517l0.225-0.227l0.642,0.646c0.546,0.552,1.071,0.694,1.466,0.694c0.076,0,0.148-0.006,0.215-0.015
	c0.577-0.076,1.142-0.465,1.587-1.082c0.45,0.136,0.935,0.131,1.399-0.021c0.49-0.159,0.93-0.47,1.234-0.863
	c0.598,0.163,1.219,0.046,1.754-0.345c0.444-0.32,0.762-0.779,0.873-1.218c0.76-0.169,1.418-0.676,1.736-1.364
	c0.255-0.554,0.261-1.156,0.029-1.716c0.739-0.46,1.465-1.445,2.157-2.449c0.149-0.217,0.292-0.423,0.373-0.524
	c0.287-0.209,1.798-1.315,2.042-1.509l0.185-0.146L24.977,9.628z M8.909,18.825l-0.504,0.509c-0.161,0.163-0.321,0.24-0.49,0.24
	c-0.379,0-0.843-0.429-1.028-0.957l-0.091-0.255l-0.263-0.05c-0.777-0.146-1.048-0.513-1.25-1.094l-0.091-0.256l-0.264-0.051
	c-1.04-0.196-1.187-1.043-1.199-1.14l-0.047-0.336l-0.33-0.062c-0.272-0.053-0.482-0.239-0.562-0.5
	c-0.033-0.108-0.086-0.383,0.134-0.604l0.723-0.729c0.033-0.031,0.077-0.064,0.174-0.064c0.402,0,0.97,0.507,1.051,0.851
	l0.083,0.355l0.363,0.006c0.88,0.014,1.188,0.884,1.24,1.058l0.075,0.25l0.251,0.067c0.517,0.141,1.014,0.655,1.061,1.102
	l0.033,0.308l0.292,0.093c0.316,0.1,0.598,0.393,0.697,0.728C9.012,18.44,9.038,18.651,8.909,18.825z M19.35,15.81
	c-0.205,0.442-0.644,0.762-1.15,0.853l-3.358-3.387l-0.659,0.665l3.369,3.399c-0.045,0.179-0.204,0.465-0.51,0.688
	c-0.252,0.183-0.65,0.346-1.132,0.135l-2.933-2.958l-0.659,0.667l2.724,2.746c-0.188,0.217-0.446,0.394-0.729,0.485
	c-0.25,0.08-0.627,0.126-1.034-0.065l-1.984-2.001l-0.66,0.665l1.781,1.797c-0.284,0.382-0.616,0.628-0.925,0.668
	c-0.287,0.039-0.593-0.101-0.9-0.41l-0.743-0.751c0.104-0.304,0.117-0.643,0.014-0.984c-0.161-0.535-0.557-0.998-1.044-1.244
	c-0.187-0.662-0.755-1.268-1.451-1.542c-0.266-0.645-0.831-1.313-1.71-1.458c-0.334-0.666-1.146-1.241-1.835-1.241
	c-0.078,0-0.154,0.008-0.229,0.021c-0.119-0.218-0.282-0.597-0.473-1.26L3.088,11.19L1.063,8.988C1.717,7.132,4.012,5.15,5.2,4.87
	l2.48,1.88c-0.335,0.183-0.576,0.355-0.67,0.508C6.905,7.432,6.77,7.804,7.062,8.334c0.432,0.78,1.654,1.586,2.844,1.433
	c0.416-0.054,0.887-0.155,1.344-0.254c0.65-0.141,1.324-0.286,1.808-0.286c0.354,0,0.447,0.077,0.463,0.093
	c0.252,0.255,0.633,0.647,1.08,1.111c1.286,1.329,3.049,3.151,4.039,4.033c0.194,0.173,0.424,0.269,0.669,0.289
	C19.484,15.103,19.506,15.469,19.35,15.81z M22.163,10.788l-0.071,0.065c-0.115,0.129-0.267,0.348-0.476,0.651
	c-0.437,0.633-1.599,2.315-2.215,2.315c-0.038,0-0.082-0.007-0.145-0.062c-0.964-0.859-2.712-2.666-3.988-3.986
	c-0.451-0.466-0.833-0.862-1.088-1.119c-0.247-0.247-0.614-0.368-1.123-0.368c-0.582,0-1.305,0.156-2.004,0.308
	c-0.457,0.099-0.889,0.191-1.266,0.24C9.132,8.919,8.445,8.529,8.081,8.146C7.897,7.951,7.838,7.807,7.822,7.744
	c0.584-0.484,4.507-1.786,5.14-1.793c0.131,0.033,0.621,0.254,1.055,0.449c1.388,0.625,2.372,1.028,2.787,0.965
	c0.726-0.113,3.576-1.511,4.354-1.903c1.162,0.464,2.713,2.025,2.873,3.951C23.609,9.729,22.678,10.411,22.163,10.788z"/>
</svg>
