<?xml version="1.0" encoding="utf-8"?>
<!-- Generator: Adobe Illustrator 16.0.0, SVG Export Plug-In . SVG Version: 6.00 Build 0)  -->
<!DOCTYPE svg PUBLIC "-//W3C//DTD SVG 1.1//EN" "http://www.w3.org/Graphics/SVG/1.1/DTD/svg11.dtd">
<svg version="1.1" id="Layer_1" xmlns="http://www.w3.org/2000/svg" xmlns:xlink="http://www.w3.org/1999/xlink" x="0px" y="0px"
	 width="25px" height="25px" viewBox="0 0 25 25" enable-background="new 0 0 25 25" xml:space="preserve">
<g>
	<g>
		<path d="M18.439,17.143H9.629c-0.191,0-0.344,0.15-0.344,0.338c0,0.187,0.152,0.338,0.344,0.338h8.811
			c0.191,0,0.346-0.151,0.346-0.338C18.785,17.293,18.631,17.143,18.439,17.143z M18.439,13.012H9.629
			c-0.191,0-0.344,0.151-0.344,0.338s0.152,0.339,0.344,0.339h8.811c0.191,0,0.346-0.152,0.346-0.339S18.631,13.012,18.439,13.012z
			 M9.285,9.219c0,0.188,0.152,0.338,0.344,0.338h8.811c0.191,0,0.346-0.15,0.346-0.338c0-0.186-0.154-0.337-0.346-0.337H9.629
			C9.438,8.882,9.285,9.033,9.285,9.219z M7.762,8.146h-1.5c-0.189,0-0.344,0.151-0.344,0.338v1.472
			c0,0.188,0.154,0.338,0.344,0.338h1.5c0.189,0,0.346-0.15,0.346-0.338V8.483C8.107,8.297,7.951,8.146,7.762,8.146z M7.762,12.276
			h-1.5c-0.189,0-0.344,0.15-0.344,0.338v1.472c0,0.187,0.154,0.338,0.344,0.338h1.5c0.189,0,0.346-0.151,0.346-0.338v-1.472
			C8.107,12.427,7.951,12.276,7.762,12.276z M7.762,16.405h-1.5c-0.189,0-0.344,0.153-0.344,0.338v1.473
			c0,0.188,0.154,0.339,0.344,0.339h1.5c0.189,0,0.346-0.151,0.346-0.339v-1.473C8.107,16.559,7.951,16.405,7.762,16.405z
			 M22.311,3.86l-3.713-3.594c-0.162-0.155-0.377-0.243-0.605-0.243H3.293c-0.475,0-0.861,0.379-0.861,0.846V24.13
			c0,0.468,0.387,0.847,0.861,0.847h18.412c0.477,0,0.863-0.379,0.863-0.847V4.462C22.568,4.235,22.475,4.019,22.311,3.86z
			 M20.844,23.286H4.154V1.714h13.322v3.04c0,0.28,0.23,0.507,0.516,0.507h2.852V23.286z"/>
	</g>
</g>
</svg>
