<?xml version="1.0" encoding="utf-8"?>
<!-- Generator: Adobe Illustrator 16.0.0, SVG Export Plug-In . SVG Version: 6.00 Build 0)  -->
<!DOCTYPE svg PUBLIC "-//W3C//DTD SVG 1.1//EN" "http://www.w3.org/Graphics/SVG/1.1/DTD/svg11.dtd">
<svg version="1.1" id="Layer_1" xmlns="http://www.w3.org/2000/svg" xmlns:xlink="http://www.w3.org/1999/xlink" x="0px" y="0px"
	 width="25px" height="25px" viewBox="0 0 25 25" enable-background="new 0 0 25 25" xml:space="preserve">
<path d="M11.131,6.283c-0.167-0.432-0.252-0.885-0.252-1.353c0-2.057,1.677-3.732,3.738-3.732s3.738,1.675,3.738,3.732
	c0,0.583-0.129,1.14-0.386,1.655l0.959,0.475c0.33-0.665,0.498-1.382,0.498-2.13c0-2.647-2.158-4.801-4.81-4.801
	c-2.65,0-4.809,2.154-4.809,4.801c0,0.601,0.109,1.186,0.325,1.74L11.131,6.283z M6.634,12.266c-0.552,0-0.999,0.415-0.999,0.926
	c0,0.513,0.447,0.928,0.999,0.928s0.999-0.415,0.999-0.928C7.633,12.681,7.186,12.266,6.634,12.266z M13.646,6.903
	c-1.898,0-3.857,0.469-5.517,1.319L7.948,8.316C6.906,7.517,5.523,7.087,4.714,7.087c-0.42,0-0.724,0.114-0.906,0.339
	c-0.399,0.496-0.084,1.301,0.859,2.952c-0.663,0.535-1.207,1.217-1.595,2c-0.418,0.156-0.932,0.229-1.599,0.229H1.405
	c-0.339,0-0.627,0.17-0.813,0.48c-0.504,0.835-0.17,2.709,0.446,3.869c0.439,0.829,2.122,2.098,5.287,3.988
	c0.013,0.008,0.022,0.014,0.035,0.021v4.04h3.3l0.859-2.003c1.01,0.263,2.061,0.396,3.127,0.396c1.326,0,2.979-0.205,4.216-0.512
	l0.806,2.118h3.085l0.59-4.629c1.491-1.472,2.311-3.32,2.311-5.227C24.653,10.758,19.51,6.903,13.646,6.903z M21.468,19.735
	l-0.139,0.132l-0.52,4.072h-1.402l-0.895-2.348l-0.477,0.145c-1.17,0.35-2.975,0.595-4.39,0.595c-1.125,0-2.229-0.16-3.278-0.48
	l-0.458-0.14l-0.956,2.229H7.431v-3.532l-0.206-0.16c-0.022-0.018-0.146-0.095-0.35-0.218c-3.815-2.279-4.703-3.216-4.892-3.571
	c-0.557-1.051-0.665-2.432-0.498-2.781c0.915,0,1.617-0.129,2.207-0.399l0.182-0.083l0.082-0.182
	c0.381-0.841,0.972-1.548,1.713-2.044l0.415-0.28l-0.251-0.433c-0.268-0.457-0.915-1.566-1.083-2.1
	c0.836,0.018,2.506,0.679,3.195,1.666l0.995,1.426l-0.027-2.22c1.446-0.683,3.113-1.056,4.733-1.056
	c5.293,0,9.937,3.355,9.937,7.181C23.583,16.819,22.832,18.449,21.468,19.735z"/>
</svg>
