<?xml version="1.0" encoding="utf-8"?>
<!-- Generator: Adobe Illustrator 15.1.0, SVG Export Plug-In . SVG Version: 6.00 Build 0)  -->
<!DOCTYPE svg PUBLIC "-//W3C//DTD SVG 1.1//EN" "http://www.w3.org/Graphics/SVG/1.1/DTD/svg11.dtd">
<svg version="1.1" id="Layer_1" xmlns="http://www.w3.org/2000/svg" xmlns:xlink="http://www.w3.org/1999/xlink" x="0px" y="0px"
	 width="20px" height="20px" viewBox="0 0 20 20" enable-background="new 0 0 20 20" xml:space="preserve">
<g opacity="0.4">
	<path fill="#6D6E70" d="M18.776,7.855H12.18V0.951c0-0.602-0.489-1.09-1.091-1.09H8.912c-0.602,0-1.091,0.488-1.091,1.09v6.904
		H1.223c-0.602,0-1.09,0.489-1.09,1.091v2.041c0,0.602,0.488,1.091,1.09,1.091h6.598v6.972c0,0.602,0.489,1.091,1.091,1.091h2.177
		c0.602,0,1.091-0.489,1.091-1.091v-6.972h6.597c0.602,0,1.091-0.489,1.091-1.091V8.946C19.867,8.344,19.378,7.855,18.776,7.855z"/>
</g>
<g opacity="0.4">
	<path fill="#6D6E70" d="M83.087,7.84H65.123c-0.615,0-1.115,0.5-1.115,1.116v2.089c0,0.615,0.5,1.115,1.115,1.115h17.964
		c0.616,0,1.115-0.5,1.115-1.115V8.956C84.202,8.34,83.703,7.84,83.087,7.84z"/>
</g>
</svg>
