<?xml version="1.0" encoding="utf-8"?>
<!-- Generator: Adobe Illustrator 15.1.0, SVG Export Plug-In . SVG Version: 6.00 Build 0)  -->
<!DOCTYPE svg PUBLIC "-//W3C//DTD SVG 1.1//EN" "http://www.w3.org/Graphics/SVG/1.1/DTD/svg11.dtd">
<svg version="1.1" id="Layer_1" xmlns="http://www.w3.org/2000/svg" xmlns:xlink="http://www.w3.org/1999/xlink" x="0px" y="0px"
	 width="54.756px" height="132.391px" viewBox="0 0 54.756 132.391" enable-background="new 0 0 54.756 132.391"
	 xml:space="preserve">
<g>
	<path fill="#BCB3A8" d="M44.731,7.177c-9.569-9.569-25.139-9.569-34.706-0.002c-9.569,9.568-9.568,25.138,0.001,34.707
		c9.566,9.567,25.136,9.567,34.704-0.002C54.299,32.313,54.298,16.745,44.731,7.177z M42.054,39.205
		c-8.092,8.092-21.26,8.093-29.352,0.001c-8.094-8.094-8.093-21.262,0-29.354c8.092-8.092,21.259-8.093,29.353,0.001
		C50.146,17.945,50.146,31.113,42.054,39.205z"/>
	<path fill="#BCB3A8" d="M38.36,15.92l-2.117-2.117c-0.586-0.586-1.535-0.586-2.121,0l-6.713,6.713l-6.416-6.415
		c-0.586-0.586-1.536-0.586-2.121,0l-1.985,1.984c-0.585,0.585-0.585,1.535,0,2.121l6.416,6.416l-6.779,6.779
		c-0.586,0.586-0.586,1.536,0,2.121l2.117,2.117c0.585,0.586,1.535,0.586,2.121,0l6.779-6.779l6.416,6.416
		c0.585,0.585,1.536,0.585,2.121,0l1.985-1.985c0.585-0.585,0.585-1.535,0-2.121l-6.416-6.416l6.713-6.713
		C38.946,17.456,38.946,16.505,38.36,15.92z"/>
</g>
<g>
	<path fill="#BCB3A8" d="M44.731,7.177c-9.569-9.569-25.139-9.569-34.706-0.002c-9.569,9.568-9.568,25.138,0.001,34.707
		c9.566,9.567,25.136,9.567,34.704-0.002C54.299,32.313,54.298,16.745,44.731,7.177z M42.054,39.205
		c-8.092,8.092-21.26,8.093-29.352,0.001c-8.094-8.094-8.093-21.262,0-29.354c8.092-8.092,21.259-8.093,29.353,0.001
		C50.146,17.945,50.146,31.113,42.054,39.205z"/>
	<path fill="#BCB3A8" d="M38.36,15.92l-2.117-2.117c-0.586-0.586-1.535-0.586-2.121,0l-6.713,6.713l-6.416-6.415
		c-0.586-0.586-1.536-0.586-2.121,0l-1.985,1.984c-0.585,0.585-0.585,1.535,0,2.121l6.416,6.416l-6.779,6.779
		c-0.586,0.586-0.586,1.536,0,2.121l2.117,2.117c0.585,0.586,1.535,0.586,2.121,0l6.779-6.779l6.416,6.416
		c0.585,0.585,1.536,0.585,2.121,0l1.985-1.985c0.585-0.585,0.585-1.535,0-2.121l-6.416-6.416l6.713-6.713
		C38.946,17.456,38.946,16.505,38.36,15.92z"/>
</g>
<g>
	<path fill="#566C11" d="M44.731,90.511c-9.569-9.569-25.139-9.569-34.706-0.002c-9.569,9.568-9.568,25.138,0.001,34.707
		c9.566,9.566,25.136,9.566,34.704-0.002C54.299,115.647,54.298,100.079,44.731,90.511z M42.054,122.539
		c-8.092,8.092-21.26,8.092-29.352,0c-8.094-8.093-8.093-21.261,0-29.353c8.092-8.092,21.259-8.093,29.353,0.001
		C50.146,101.279,50.146,114.447,42.054,122.539z"/>
	<path fill="#566C11" d="M38.36,99.254l-2.117-2.117c-0.586-0.586-1.535-0.586-2.121,0l-6.713,6.713l-6.416-6.415
		c-0.586-0.586-1.536-0.586-2.121,0l-1.985,1.984c-0.585,0.585-0.585,1.535,0,2.121l6.416,6.416l-6.779,6.779
		c-0.586,0.586-0.586,1.536,0,2.121l2.117,2.117c0.585,0.586,1.535,0.586,2.121,0l6.779-6.779l6.416,6.416
		c0.585,0.585,1.536,0.585,2.121,0l1.985-1.985c0.585-0.585,0.585-1.535,0-2.121l-6.416-6.416l6.713-6.713
		C38.946,100.79,38.946,99.839,38.36,99.254z"/>
</g>
</svg>
