<?xml version="1.0" encoding="utf-8"?>
<!-- Generator: Adobe Illustrator 15.1.0, SVG Export Plug-In . SVG Version: 6.00 Build 0)  -->
<!DOCTYPE svg PUBLIC "-//W3C//DTD SVG 1.1//EN" "http://www.w3.org/Graphics/SVG/1.1/DTD/svg11.dtd">
<svg version="1.1" id="Layer_1" xmlns="http://www.w3.org/2000/svg" xmlns:xlink="http://www.w3.org/1999/xlink" x="0px" y="0px"
	 width="125px" height="125px" viewBox="0 0 125 125" enable-background="new 0 0 125 125" xml:space="preserve">
<path fill="#FFFFFF" d="M62.502,0.007c-34.457,0-62.507,28.035-62.507,62.506c0,34.463,28.05,62.48,62.507,62.48
	c34.472,0,62.503-28.018,62.503-62.48C125.005,28.042,96.974,0.007,62.502,0.007z M62.502,115.758
	c-29.408,0-53.249-23.84-53.249-53.245c0-29.422,23.841-53.253,53.249-53.253c29.4,0,53.232,23.831,53.232,53.253
	C115.734,91.918,91.902,115.758,62.502,115.758z M48.649,93.287l38.72-30.774L48.649,31.74V93.287z"/>
</svg>
