<?xml version="1.0" encoding="utf-8"?>
<!-- Generator: Adobe Illustrator 15.1.0, SVG Export Plug-In . SVG Version: 6.00 Build 0)  -->
<!DOCTYPE svg PUBLIC "-//W3C//DTD SVG 1.1//EN" "http://www.w3.org/Graphics/SVG/1.1/DTD/svg11.dtd">
<svg version="1.1" id="Layer_1" xmlns="http://www.w3.org/2000/svg" xmlns:xlink="http://www.w3.org/1999/xlink" x="0px" y="0px"
	 width="40px" height="250px" viewBox="0 0 40 250" enable-background="new 0 0 40 250" xml:space="preserve">
<path fill="#ACACAC" d="M24.909,52.836h-3.254v-2.213c0-0.83,0.53-1.023,0.905-1.023c0.373,0,2.296,0,2.296,0v-3.652l-3.163-0.014
	c-3.511,0-4.31,2.725-4.31,4.468v2.435h-2.03V56.6h2.03c0,4.829,0,10.647,0,10.647h4.271c0,0,0-5.877,0-10.647h2.881L24.909,52.836z
	"/>
<g>
	<g>
		<path fill="#ACACAC" d="M20.823,100.997v-0.028c-0.006,0.01-0.014,0.019-0.02,0.028H20.823z M27.936,92.804H12.327
			c-0.747,0-1.354,0.582-1.354,1.302v15.562c0,0.718,0.606,1.302,1.354,1.302h15.608c0.748,0,1.354-0.584,1.354-1.302V94.105
			C29.289,93.386,28.684,92.804,27.936,92.804z M16.525,108.01h-2.767v-8.202h2.767V108.01z M15.143,98.688h-0.019
			c-0.928,0-1.528-0.63-1.528-1.417c0-0.805,0.619-1.417,1.564-1.417c0.946,0,1.529,0.612,1.548,1.417
			C16.708,98.058,16.106,98.688,15.143,98.688z M26.5,108.01h-2.766v-4.389c0-1.103-0.4-1.854-1.401-1.854
			c-0.764,0-1.219,0.507-1.42,0.998c-0.072,0.175-0.09,0.419-0.09,0.664v4.581h-2.767c0,0,0.036-7.434,0-8.202h2.767v1.161
			c0.367-0.559,1.024-1.354,2.493-1.354c1.82,0,3.184,1.173,3.184,3.692V108.01z"/>
	</g>
</g>
<path fill="#ACACAC" d="M29.687,5.27c-0.703,0.317-1.459,0.531-2.252,0.628c0.809-0.494,1.43-1.274,1.723-2.205
	c-0.758,0.457-1.596,0.788-2.488,0.967c-0.717-0.774-1.734-1.258-2.863-1.258c-2.164,0-3.92,1.783-3.92,3.984
	c0,0.312,0.035,0.617,0.102,0.908c-3.258-0.166-6.147-1.752-8.081-4.164c-0.338,0.589-0.531,1.273-0.531,2.004
	c0,1.383,0.692,2.603,1.744,3.317c-0.642-0.021-1.247-0.2-1.775-0.499c0,0.017,0,0.033,0,0.051c0,1.931,1.351,3.541,3.144,3.907
	c-0.329,0.092-0.675,0.141-1.032,0.141c-0.253,0-0.499-0.025-0.738-0.072c0.499,1.584,1.947,2.736,3.663,2.768
	c-1.342,1.069-3.033,1.707-4.87,1.707c-0.316,0-0.628-0.02-0.935-0.057c1.735,1.131,3.795,1.791,6.009,1.791
	c7.212,0,11.155-6.072,11.155-11.339c0-0.173-0.004-0.346-0.012-0.516C28.495,6.771,29.159,6.069,29.687,5.27z"/>
<path fill="#575757" d="M24.909,188.725h-3.254v-2.213c0-0.83,0.53-1.023,0.905-1.023c0.373,0,2.296,0,2.296,0v-3.652l-3.163-0.014
	c-3.511,0-4.31,2.725-4.31,4.467v2.436h-2.03v3.764h2.03c0,4.828,0,10.646,0,10.646h4.271c0,0,0-5.877,0-10.646h2.881
	L24.909,188.725z"/>
<g>
	<g>
		<path fill="#575757" d="M20.823,236.885v-0.028c-0.006,0.009-0.014,0.019-0.02,0.028H20.823z M27.936,228.691H12.327
			c-0.747,0-1.354,0.582-1.354,1.301v15.563c0,0.718,0.606,1.302,1.354,1.302h15.608c0.748,0,1.354-0.584,1.354-1.302v-15.563
			C29.289,229.273,28.684,228.691,27.936,228.691z M16.525,243.897h-2.767v-8.202h2.767V243.897z M15.143,234.575h-0.019
			c-0.928,0-1.528-0.63-1.528-1.417c0-0.805,0.619-1.418,1.564-1.418c0.946,0,1.529,0.613,1.548,1.418
			C16.708,233.945,16.106,234.575,15.143,234.575z M26.5,243.897h-2.766v-4.389c0-1.103-0.4-1.854-1.401-1.854
			c-0.764,0-1.219,0.507-1.42,0.998c-0.072,0.175-0.09,0.419-0.09,0.664v4.581h-2.767c0,0,0.036-7.434,0-8.202h2.767v1.161
			c0.367-0.56,1.024-1.354,2.493-1.354c1.82,0,3.184,1.172,3.184,3.692V243.897z"/>
	</g>
</g>
<path fill="#575757" d="M29.687,141.158c-0.703,0.316-1.459,0.531-2.252,0.627c0.809-0.494,1.43-1.273,1.723-2.205
	c-0.758,0.457-1.596,0.789-2.488,0.967c-0.717-0.773-1.734-1.258-2.863-1.258c-2.164,0-3.92,1.783-3.92,3.984
	c0,0.312,0.035,0.617,0.102,0.908c-3.258-0.166-6.146-1.752-8.08-4.164c-0.338,0.59-0.531,1.273-0.531,2.004
	c0,1.383,0.692,2.604,1.744,3.318c-0.642-0.021-1.247-0.201-1.775-0.5c0,0.018,0,0.033,0,0.051c0,1.932,1.351,3.541,3.144,3.908
	c-0.329,0.092-0.675,0.141-1.032,0.141c-0.253,0-0.499-0.025-0.738-0.072c0.499,1.584,1.947,2.736,3.663,2.768
	c-1.342,1.068-3.033,1.707-4.87,1.707c-0.316,0-0.628-0.02-0.935-0.057c1.735,1.131,3.795,1.791,6.009,1.791
	c7.212,0,11.155-6.072,11.155-11.34c0-0.172-0.004-0.346-0.012-0.516C28.495,142.658,29.159,141.957,29.687,141.158z"/>
</svg>
